<svg width="254" height="66" viewBox="0 0 254 66" fill="none" xmlns="http://www.w3.org/2000/svg">
<g clip-path="url(#clip0)">
<path d="M33.2637 0C14.874 0 0 14.7628 0 33.0149C0 51.2671 14.874 66.0298 33.2637 66.0298C51.6534 66.0298 66.5274 51.2671 66.5274 33.0149C66.5274 14.7628 51.6233 0 33.2637 0ZM24.2792 27.8256H22.1758V58.8423H20.1625V27.8256H18.0592V17.089H20.1625V13.3312H22.1758V17.1188H24.2792V27.8256ZM36.569 55.4722H34.3755V60.6317H32.1519V55.4722H29.9584V25.6484H32.1519V5.36828H34.3454V25.6484H36.539V55.4722H36.569ZM48.4382 33.0149H46.3348V40.5603H44.5319V33.0149H42.4285V13.3312H44.5319V9.5436H46.3348V13.3312H48.4382V33.0149Z" fill="white"/>
<path d="M90.5661 15.5382V18.4311H82.6033V20.0714H89.7548V22.9643H82.6033V24.6643H90.8666V27.6467H79.358V15.5382H90.5661Z" fill="white"/>
<path d="M106.161 21.5924C106.161 22.5468 105.981 23.4117 105.59 24.1871C105.23 24.9625 104.719 25.6186 104.088 26.1853C103.457 26.7519 102.736 27.1695 101.924 27.4677C101.083 27.7659 100.242 27.9151 99.3102 27.9151C98.4087 27.9151 97.5373 27.7659 96.6959 27.4677C95.8546 27.1695 95.1334 26.7221 94.5325 26.1853C93.9014 25.6186 93.4207 24.9625 93.03 24.1871C92.6694 23.4117 92.4591 22.5468 92.4591 21.5924C92.4591 20.6381 92.6394 19.7732 93.03 18.9977C93.3906 18.2223 93.9014 17.5662 94.5325 16.9996C95.1635 16.4329 95.8846 16.0154 96.6959 15.7171C97.5373 15.4189 98.3787 15.2698 99.3102 15.2698C100.212 15.2698 101.083 15.4189 101.924 15.7171C102.766 16.0154 103.487 16.4627 104.088 16.9996C104.719 17.5662 105.2 18.2223 105.59 18.9977C105.981 19.7732 106.161 20.6381 106.161 21.5924ZM95.7344 21.5924C95.7344 22.1591 95.8245 22.6362 96.0048 23.0836C96.1851 23.531 96.4556 23.9187 96.7861 24.2169C97.1166 24.545 97.5072 24.7836 97.9279 24.9327C98.3486 25.1116 98.8294 25.1713 99.3402 25.1713C99.851 25.1713 100.302 25.0818 100.752 24.9327C101.203 24.7537 101.564 24.5151 101.894 24.2169C102.225 23.9187 102.465 23.531 102.646 23.0836C102.826 22.6362 102.916 22.1292 102.916 21.5924C102.916 21.0258 102.826 20.5486 102.646 20.1012C102.465 19.6539 102.195 19.2662 101.894 18.9679C101.564 18.6697 101.203 18.4013 100.752 18.2522C100.302 18.0732 99.851 18.0136 99.3402 18.0136C98.8294 18.0136 98.3486 18.103 97.9279 18.2522C97.5072 18.4311 97.1166 18.6697 96.7861 18.9679C96.4556 19.296 96.1851 19.6539 96.0048 20.1012C95.8245 20.5188 95.7344 21.0258 95.7344 21.5924Z" fill="white"/>
<path d="M114.545 15.5382C115.356 15.5382 116.137 15.6873 116.949 15.9856C117.73 16.2838 118.421 16.7013 119.052 17.2083C119.683 17.7452 120.164 18.3715 120.555 19.1171C120.945 19.8627 121.126 20.6679 121.126 21.5626C121.126 22.4573 120.945 23.2626 120.555 24.0082C120.194 24.7538 119.683 25.3801 119.082 25.9169C118.451 26.4537 117.76 26.8712 116.979 27.1695C116.198 27.4677 115.386 27.6168 114.575 27.6168H108.175V15.5382H114.545ZM111.39 24.6643H114.605C115.056 24.6643 115.476 24.5748 115.897 24.4257C116.288 24.2766 116.648 24.038 116.949 23.7696C117.249 23.5012 117.49 23.1731 117.64 22.7854C117.82 22.3977 117.88 22.01 117.88 21.5626C117.88 21.1153 117.79 20.7275 117.64 20.3398C117.46 19.9521 117.249 19.6241 116.949 19.3557C116.648 19.0574 116.288 18.8486 115.897 18.6995C115.506 18.5504 115.086 18.4609 114.605 18.4609H111.39V24.6643Z" fill="white"/>
<path d="M132.273 15.5382V19.9521H138.223V15.5382H141.468V27.6168H138.223V22.845H132.243V27.6168H128.998V15.5382H132.273Z" fill="white"/>
<path d="M146.787 15.5382V27.6168H143.542V15.5382H146.787Z" fill="white"/>
<path d="M159.648 19.5644C158.956 19.0574 158.205 18.6995 157.454 18.4609C156.703 18.2521 155.831 18.1329 154.87 18.1329C154.359 18.1329 153.938 18.1627 153.608 18.2223C153.277 18.282 153.007 18.3416 152.827 18.4311C152.646 18.5206 152.496 18.6399 152.436 18.7592C152.376 18.8784 152.346 18.9977 152.346 19.117C152.346 19.3556 152.466 19.5346 152.706 19.5942C152.947 19.6837 153.247 19.7433 153.608 19.7732L157.154 20.1609C158.476 20.31 159.557 20.6977 160.339 21.2643C161.12 21.831 161.511 22.7257 161.511 23.8888C161.511 24.5748 161.36 25.2011 161.03 25.6783C160.699 26.1853 160.249 26.6028 159.678 26.9309C159.107 27.2589 158.416 27.4975 157.634 27.6466C156.853 27.7958 156.012 27.8852 155.08 27.8852C153.818 27.8852 152.676 27.7361 151.655 27.4379C150.633 27.1396 149.641 26.6028 148.65 25.8572L150.182 23.352C151.024 23.9485 151.865 24.366 152.706 24.6643C153.548 24.9625 154.449 25.1116 155.381 25.1116C156.222 25.1116 156.913 25.0221 157.514 24.8134C158.085 24.6344 158.386 24.3362 158.386 23.9187C158.386 23.7099 158.325 23.5608 158.235 23.4415C158.145 23.3222 157.905 23.2625 157.514 23.2327L153.337 22.7555C152.045 22.6064 151.024 22.2485 150.303 21.6819C149.581 21.1152 149.221 20.2503 149.221 19.0872C149.221 18.4311 149.371 17.8644 149.671 17.3574C149.972 16.8803 150.393 16.4627 150.903 16.1347C151.414 15.8066 152.015 15.568 152.706 15.4189C153.398 15.2698 154.149 15.1803 154.93 15.1803C156.102 15.1803 157.214 15.3294 158.265 15.5978C159.317 15.8662 160.309 16.3732 161.27 17.1188L159.648 19.5644Z" fill="white"/>
<path d="M175.483 15.5382V18.4311H170.736V27.6168H167.49V18.4013H162.743V15.5084H175.483V15.5382Z" fill="white"/>
<path d="M190.357 21.5924C190.357 22.5468 190.177 23.4117 189.786 24.1871C189.426 24.9625 188.915 25.6186 188.284 26.1853C187.653 26.7519 186.932 27.1695 186.12 27.4677C185.279 27.7659 184.438 27.9151 183.506 27.9151C182.605 27.9151 181.733 27.7659 180.892 27.4677C180.051 27.1695 179.329 26.7221 178.728 26.1853C178.097 25.6186 177.617 24.9625 177.226 24.1871C176.865 23.4117 176.655 22.5468 176.655 21.5924C176.655 20.6381 176.835 19.7732 177.226 18.9977C177.587 18.2223 178.097 17.5662 178.728 16.9996C179.359 16.4329 180.081 16.0154 180.892 15.7171C181.733 15.4189 182.575 15.2698 183.506 15.2698C184.408 15.2698 185.279 15.4189 186.12 15.7171C186.962 16.0154 187.683 16.4627 188.284 16.9996C188.915 17.5662 189.396 18.2223 189.786 18.9977C190.177 19.7732 190.357 20.6381 190.357 21.5924ZM179.93 21.5924C179.93 22.1591 180.02 22.6362 180.201 23.0836C180.381 23.531 180.651 23.9187 180.982 24.2169C181.313 24.545 181.703 24.7836 182.124 24.9327C182.545 25.1116 183.025 25.1713 183.536 25.1713C184.047 25.1713 184.498 25.0818 184.948 24.9327C185.399 24.7537 185.76 24.5151 186.09 24.2169C186.421 23.9187 186.661 23.531 186.841 23.0836C187.022 22.6362 187.112 22.1292 187.112 21.5924C187.112 21.0258 187.022 20.5486 186.841 20.1012C186.661 19.6539 186.391 19.2662 186.09 18.9679C185.76 18.6697 185.399 18.4013 184.948 18.2522C184.498 18.0732 184.047 18.0136 183.536 18.0136C183.025 18.0136 182.545 18.103 182.124 18.2522C181.703 18.4311 181.313 18.6697 180.982 18.9679C180.651 19.296 180.381 19.6539 180.201 20.1012C180.02 20.5188 179.93 21.0258 179.93 21.5924Z" fill="white"/>
<path d="M199.522 15.5382C200.243 15.5382 200.934 15.6575 201.565 15.8961C202.196 16.1347 202.737 16.4627 203.158 16.8803C203.609 17.2978 203.969 17.8048 204.209 18.4013C204.48 18.9978 204.6 19.6539 204.6 20.3697C204.6 21.2644 204.42 22.0696 204.029 22.7257C203.639 23.3819 203.098 23.9485 202.407 24.3362L204.27 27.6467H200.724L199.342 25.0818H195.556V27.6467H192.31V15.5382H199.522ZM195.586 22.0994H199.432C200.003 22.0994 200.484 21.9503 200.844 21.6521C201.205 21.3538 201.385 20.9065 201.385 20.31C201.385 19.7135 201.205 19.2662 200.844 18.9381C200.484 18.6101 200.003 18.4311 199.432 18.4311H195.586V22.0994Z" fill="white"/>
<path d="M209.498 15.5382V27.6168H206.253V15.5382H209.498Z" fill="white"/>
<path d="M222.088 20.1012C221.638 19.4451 221.127 18.9381 220.526 18.61C219.955 18.282 219.174 18.103 218.242 18.103C217.161 18.103 216.289 18.4311 215.628 19.0574C214.967 19.6837 214.636 20.5486 214.636 21.6222C214.636 22.1591 214.727 22.6363 214.907 23.0538C215.087 23.4713 215.328 23.859 215.658 24.1573C215.959 24.4555 216.349 24.6941 216.8 24.873C217.251 25.052 217.731 25.1116 218.242 25.1116C219.174 25.1116 219.925 24.9327 220.526 24.6046C221.127 24.2766 221.638 23.7696 222.058 23.1134L224.582 24.5152C223.951 25.6783 223.14 26.5133 222.088 27.08C221.037 27.6467 219.775 27.9449 218.302 27.9449C217.311 27.9449 216.409 27.7958 215.568 27.4975C214.727 27.1993 214.005 26.7818 213.404 26.2449C212.803 25.7081 212.323 25.0222 211.962 24.2467C211.602 23.4713 211.451 22.5766 211.451 21.5924C211.451 20.6082 211.632 19.7433 211.992 18.9679C212.353 18.1925 212.834 17.5364 213.465 16.9697C214.096 16.4329 214.817 16.0154 215.628 15.6873C216.469 15.3891 217.371 15.24 218.332 15.24C221.277 15.24 223.381 16.3733 224.643 18.6697L222.088 20.1012Z" fill="white"/>
<path d="M235.34 15.5382L240.508 27.6168H237.083L236.301 25.8572H229.57L228.819 27.6168H225.334L230.622 15.5382H235.34ZM230.772 23.0538H235.069L233.206 18.4013H232.696L230.772 23.0538Z" fill="white"/>
<path d="M245.376 15.5382V24.7239H253.399V27.6168H242.131V15.5382H245.376Z" fill="white"/>
<path d="M85.7583 41.7533C86.5696 41.7533 87.3508 41.9024 88.1622 42.2006C88.9434 42.4989 89.6345 42.9164 90.2655 43.4234C90.8966 43.9602 91.3773 44.5865 91.768 45.3321C92.1586 46.0777 92.3389 46.883 92.3389 47.7777C92.3389 48.6724 92.1586 49.4776 91.768 50.2232C91.4074 50.9688 90.8966 51.5951 90.2956 52.1319C89.6646 52.6688 88.9735 53.0863 88.1922 53.3845C87.4109 53.6828 86.5996 53.8319 85.7883 53.8319H79.388V41.7533H85.7583ZM82.6032 50.8793H85.8184C86.2691 50.8793 86.6898 50.7899 87.1105 50.6407C87.5011 50.4916 87.8617 50.253 88.1622 49.9846C88.4626 49.7162 88.703 49.3882 88.8533 49.0004C89.0336 48.6127 89.0937 48.225 89.0937 47.7777C89.0937 47.3303 89.0035 46.9426 88.8533 46.5549C88.673 46.1672 88.4626 45.8391 88.1622 45.5707C87.8617 45.2725 87.5011 45.0637 87.1105 44.9146C86.7198 44.7655 86.2991 44.676 85.8184 44.676H82.6032V50.8793Z" fill="white"/>
<path d="M103.127 41.7533L108.295 53.8319H104.869L104.088 52.0723H97.3572L96.606 53.8319H93.1504L98.4389 41.7533H103.127ZM98.5591 49.2689H102.856L100.993 44.6163H100.482L98.5591 49.2689Z" fill="white"/>
<path d="M120.284 41.7533V44.6462H115.537V53.8319H112.291V44.6462H107.574V41.7533H120.284Z" fill="white"/>
<path d="M129.599 41.7533L134.768 53.8319H131.312L130.531 52.0723H123.8L123.049 53.8319H119.593L124.882 41.7533H129.599ZM125.002 49.2689H129.299L127.436 44.6163H126.925L125.002 49.2689Z" fill="white"/>
</g>
<defs>
<clipPath id="clip0">
<rect width="254" height="66" fill="white"/>
</clipPath>
</defs>
</svg>
